<svg width="15" height="14" viewBox="0 0 15 14" fill="none" xmlns="http://www.w3.org/2000/svg">
<path d="M7.43054 4.89878L7.75454 5.6566C7.77651 5.7225 7.83691 5.76094 7.89732 5.76643L8.72104 5.84331C8.89677 5.85978 8.96266 6.07395 8.83636 6.18927L8.21582 6.73292C8.1664 6.77686 8.14443 6.84275 8.16091 6.90316L8.34213 7.7104C8.38057 7.88064 8.19935 8.01243 8.04559 7.92457L7.33719 7.50173C7.28228 7.46878 7.21089 7.46878 7.15597 7.50173L6.44757 7.92457C6.2993 8.01243 6.11259 7.88064 6.15103 7.7104L6.33225 6.90316C6.34873 6.84275 6.32676 6.77686 6.27734 6.73292L5.6568 6.18927C5.52501 6.07395 5.5964 5.85978 5.77212 5.84331L6.59584 5.76643C6.66174 5.76094 6.71665 5.72249 6.74411 5.66209L7.06811 4.90427C7.13401 4.73952 7.35916 4.73952 7.43054 4.89878Z" stroke="#F0C932" stroke-width="0.549146" stroke-miterlimit="10" stroke-linecap="round" stroke-linejoin="round"/>
<path d="M10.9821 6.50485C10.9963 4.44251 9.33591 2.75914 7.27357 2.74495C5.21123 2.73076 3.52787 4.39111 3.51368 6.45345C3.49948 8.51579 5.15983 10.1992 7.22217 10.2133C9.28451 10.2275 10.9679 8.56719 10.9821 6.50485Z" stroke="#F0C932" stroke-width="0.549146" stroke-miterlimit="10" stroke-linecap="round" stroke-linejoin="round"/>
<path d="M6.73861 10.1761L5.81055 12.5099L4.63538 11.1645L2.86163 11.3293L4.03681 8.38586" stroke="#F0C932" stroke-width="0.549146" stroke-miterlimit="10" stroke-linecap="round" stroke-linejoin="round"/>
<path d="M7.74905 10.1761L8.6826 12.51L9.85228 11.1646L11.6315 11.3293L10.4509 8.38587" stroke="#F0C932" stroke-width="0.549146" stroke-miterlimit="10" stroke-linecap="round" stroke-linejoin="round"/>
</svg>
