<svg width="6" height="5" viewBox="0 0 6 5" fill="none" xmlns="http://www.w3.org/2000/svg">
<g clip-path="url(#clip0_32_434)">
<path d="M1.56061 4.8129V1.60643H0.48523V4.8129H1.56061ZM1.02306 1.16838C1.39806 1.16838 1.63148 0.922162 1.63148 0.614471C1.6245 0.29984 1.39808 0.0604553 1.03018 0.0604553C0.662331 0.0604553 0.421783 0.299845 0.421783 0.614471C0.421783 0.922177 0.655148 1.16838 1.01604 1.16838H1.02303H1.02306ZM2.15583 4.8129H3.23121V3.02225C3.23121 2.92642 3.2382 2.83068 3.26659 2.76218C3.34434 2.57071 3.52128 2.3724 3.81834 2.3724C4.20748 2.3724 4.36315 2.66644 4.36315 3.09749V4.81287H5.43847V2.97432C5.43847 1.98942 4.90793 1.53115 4.2004 1.53115C3.62027 1.53115 3.36556 1.85252 3.22405 2.07141H3.23123V1.60637H2.15585C2.16997 1.90724 2.15585 4.81283 2.15585 4.81283L2.15583 4.8129Z" fill="white"/>
</g>
<defs>
<clipPath id="clip0_32_434">
<rect width="5.06927" height="4.75244" fill="white" transform="translate(0.435181 0.0604858)"/>
</clipPath>
</defs>
</svg>
